<?xml version="1.0" encoding="utf-8"?>
<!-- Generator: Adobe Illustrator 18.1.1, SVG Export Plug-In . SVG Version: 6.00 Build 0)  -->
<svg version="1.1" id="Layer_1" xmlns="http://www.w3.org/2000/svg" xmlns:xlink="http://www.w3.org/1999/xlink" x="0px" y="0px"
	 viewBox="-229 431 100 100" enable-background="new -229 431 100 100" xml:space="preserve">
<g id="Team">
	<circle cx="-197.9" cy="458.8" r="5.9"/>
	<g>
		<path d="M-180.3,471.9c-7.8,0-14.2,8.9-14.2,19.9c0,5.2,1.4,11.4,3.8,9.4c0.3,7.2,4.7,9.8,10.1,9.8c5.5,0,10-2.7,10.1-10.3
			c2.7,2.4,4.3-3.3,4.3-8.9C-166.1,480.8-172.4,471.9-180.3,471.9z"/>
		<g>
			<circle cx="-180.3" cy="464.1" r="6.9"/>
		</g>
	</g>
	<path d="M-197.1,491.8c0-8.4,3.4-15.7,8.5-19.6c-2.2-3.8-5.6-6.1-9.4-6.1c-6.8,0-12.2,7.7-12.2,17.2c0,4.5,1.2,4,3.3,2.2
		c0.3,6.2,4.1,8.5,8.7,8.5c0.4,0,0.8,0,1.2-0.1C-197.1,493.1-197.1,492.3-197.1,491.8z"/>
	<g>
		<path d="M-160.2,463.1c-4.6,0-8.6,4-10.7,10c4.5,4,7.5,10.9,7.5,18.8c0,0.7,0,1.9-0.3,3.1c1,0.3,2.1,0.5,3.3,0.5
			c4.8,0,8.7-2.7,8.8-10.3c2.3,2.4,3.8,3.5,3.8-2.1C-147.8,472-153.4,463.1-160.2,463.1z"/>
	</g>
	<g>
		<circle cx="-160.2" cy="456.5" r="5.5"/>
	</g>
</g>
<path d="M-229,431v100h100V431H-229L-229,431z M-191.5,518.5h-25v-75h75v75h-25"/>
</svg>
